PathFileType	4	(X/Y/Z)	C:/Users/opensim2020/Desktop/walking_exp_matlab/subject03_walking05_straight_01.trc																																																																																																																																					
DataRate	CameraRate	NumFrames	NumMarkers	Units	OrigDataRate	OrigDataStartFrame	OrigNumFrames																																																																																																																																	
100	100	7	45	mm	100	838	298																																																																																																																																	
Frame#	Time	LFHD			RFHD			LBHD			RBHD			C7			T10			CLAV			STRN			RBAK			LSHO			LUPA			LELB			LFRM			LWRA			LWRB			LFIN			RSHO			RUPA			RELB			RFRM			RWRA			RWRB			RFIN			LASI			RASI			LPSI			RPSI			LTHI			LKNE			LTIB			LANK			LHEE			LTOE			RTHI			RKNE			RTIB			RANK			RHEE			RTOE			*39			*40			*41			*42			*43			*44		
		X1	Y1	Z1	X2	Y2	Z2	X3	Y3	Z3	X4	Y4	Z4	X5	Y5	Z5	X6	Y6	Z6	X7	Y7	Z7	X8	Y8	Z8	X9	Y9	Z9	X10	Y10	Z10	X11	Y11	Z11	X12	Y12	Z12	X13	Y13	Z13	X14	Y14	Z14	X15	Y15	Z15	X16	Y16	Z16	X17	Y17	Z17	X18	Y18	Z18	X19	Y19	Z19	X20	Y20	Z20	X21	Y21	Z21	X22	Y22	Z22	X23	Y23	Z23	X24	Y24	Z24	X25	Y25	Z25	X26	Y26	Z26	X27	Y27	Z27	X28	Y28	Z28	X29	Y29	Z29	X30	Y30	Z30	X31	Y31	Z31	X32	Y32	Z32	X33	Y33	Z33	X34	Y34	Z34	X35	Y35	Z35	X36	Y36	Z36	X37	Y37	Z37	X38	Y38	Z38	X39	Y39	Z39	X40	Y40	Z40	X41	Y41	Z41	X42	Y42	Z42	X43	Y43	Z43	X44	Y44	Z44	X45	Y45	Z45
																																																																																																																																								
112	1.11	-292.19666	1613.86609	-1059.66272	-310.47455	1624.31055	-927.67218	-416.79407	1562.22205	-1069.50696	-429.57025	1572.41809	-939.07843	-449.02435	1414.06531	-999.92548	-497.75778	1103.24084	-996.92682	-331.13171	1332.45337	-996.63354	-295.93176	1164.80237	-1001.12384	-507.89572	1243.43005	-897.65369	-370.79028	1370.62744	-1153.61804	-395.40247	1171.57031	-1219.74829	-397.79977	1048.52405	-1229.74792	-385.9549	918.26471	-1231.98926	-380.32178	797.08026	-1204.37207	-405.78265	807.16309	-1253.56531	-406.61111	721.58331	-1244.03845	-372.73297	1360.08643	-838.44934	-343.29733	1142.41431	-761.591	-306.71359	1036.1322	-749.67462	-255.84122	909.52618	-755.36084	-206.50732	826.93707	-799.74579	-228.08287	813.16974	-751.97314	-187.91357	752.28833	-768.17377	-329.50061	933.54272	-1110.67065	-332.0275	936.5274	-873.17737	-493.18198	951.14679	-1065.67236	-492.13116	968.37732	-916.52362	-301.89932	640.48474	-1163.77637	-228.06342	478.91858	-1129.96143	-256.867	284.18558	-1127.84814	-250.28395	73.74724	-1088.4054	-284.86407	35.50705	-1046.17078	-102.02042	50.99643	-1076.87756	-413.61533	645.56268	-837.37646	-426.58096	466.16812	-872.54077	-500.27209	288.00427	-871.6861	-560.40735	79.29023	-921.80109	-607.74506	51.94349	-972.04346	-421.5968	31.74133	-936.70227	NaN	NaN	NaN	NaN	NaN	NaN	NaN	NaN	NaN	NaN	NaN	NaN	NaN	NaN	NaN	NaN	NaN	NaN
113	1.12	-282.44073	1613.0282	-1060.64404	-300.88489	1623.52332	-928.61755	-406.84827	1561.0498	-1070.49683	-419.87558	1571.33887	-940.2915	-439.02606	1413.33643	-1000.70746	-488.38629	1102.4823	-997.99292	-321.32889	1331.39941	-997.3454	-286.54739	1163.6543	-1001.69452	-498.42636	1243.06018	-898.39813	-360.87445	1369.58875	-1154.44507	-388.64453	1170.8595	-1220.61621	-393.09756	1047.74634	-1230.68713	-383.09708	917.3158	-1232.82397	-378.72482	796.27533	-1205.24878	-404.58804	806.47156	-1254.0929	-406.14545	720.99805	-1244.64233	-362.69644	1359.16577	-839.25586	-333.43402	1141.77576	-761.8172	-296.34177	1035.68726	-749.91003	-244.4122	909.57001	-756.12524	-194.62932	827.55609	-800.94226	-215.64581	813.46478	-753.14307	-174.91608	753.24567	-769.5722	-319.72104	932.3092	-1111.21985	-323.85193	935.56396	-873.11511	-483.48694	949.95178	-1066.5531	-483.20511	967.49207	-917.49567	-295.42874	638.05444	-1163.76587	-221.29758	476.83679	-1128.79346	-241.48509	282.16183	-1128.39087	-223.76666	71.92648	-1091.00586	-257.05063	32.95523	-1048.75574	-74.28133	53.02617	-1079.09326	-407.08328	645.16113	-837.66809	-421.61029	465.86938	-872.67145	-497.44962	288.45145	-871.83954	-559.94983	80.24038	-921.90497	-607.21149	53.14375	-972.20245	-421.47424	31.80069	-936.46436	-374.46353	1669.72913	-1024.98535	NaN	NaN	NaN	NaN	NaN	NaN	NaN	NaN	NaN	NaN	NaN	NaN	NaN	NaN	NaN
114	1.13	-272.60754	1612.10535	-1061.60303	-291.19571	1622.66907	-929.53253	-396.98495	1559.84265	-1071.51843	-410.00629	1570.24316	-941.32019	-429.03424	1412.54578	-1001.54645	-478.95386	1101.83875	-999.1051	-311.46338	1330.3689	-998.19452	-277.10437	1162.51343	-1002.34351	-488.90204	1242.55212	-899.24219	-350.99042	1368.54565	-1155.34863	-381.60538	1170.02673	-1221.43909	-388.10458	1047.06262	-1231.55042	-379.89655	916.52606	-1233.68591	-376.47266	795.71173	-1206.06506	-402.9978	805.84448	-1254.6676	-405.38382	720.4043	-1244.9613	-352.66507	1358.22229	-840.15509	-323.51016	1141.00342	-762.21191	-286.07184	1035.10571	-750.21661	-233.23215	909.45953	-756.9071	-182.86765	828.08002	-802.00787	-203.83299	813.67236	-754.27283	-162.24542	753.97095	-771.02277	-309.89972	930.98444	-1111.77185	-315.05005	934.62744	-873.49805	-474.09805	949.09106	-1067.60071	-474.17993	966.63031	-918.49127	-289.96487	635.04077	-1163.5387	-215.03745	474.57358	-1127.75403	-226.88649	280.34393	-1128.84387	-198.70149	70.85313	-1093.41809	-230.17528	30.94534	-1051.40955	-47.99064	55.865	-1081.28564	-400.31796	644.72974	-837.94226	-416.35703	465.52896	-872.68768	-494.34409	288.85928	-871.89154	-559.41071	81.44795	-921.80859	-606.88397	54.68833	-972.19745	-421.47556	31.63951	-936.74701	-364.7132	1668.69604	-1026.40222	NaN	NaN	NaN	NaN	NaN	NaN	NaN	NaN	NaN	NaN	NaN	NaN	NaN	NaN	NaN
115	1.14	-262.75687	1611.15649	-1062.59924	-281.41452	1621.77734	-930.62585	-387.01114	1558.65845	-1072.54895	-400.22006	1569.11426	-942.40167	-419.08731	1411.66699	-1002.49829	-469.35388	1101.05029	-1000.24719	-301.59973	1329.33801	-999.02356	-267.49402	1161.42798	-1003.09143	-479.37897	1241.96582	-900.17847	-341.06436	1367.5293	-1156.34766	-374.33084	1169.2168	-1222.50171	-382.80231	1046.34863	-1232.49463	-376.29547	915.74811	-1234.56287	-373.83725	795.15155	-1206.70349	-400.98077	805.31604	-1255.18005	-403.93726	719.95239	-1245.45007	-342.77161	1357.22681	-841.07135	-313.79193	1140.19812	-762.70636	-275.94611	1034.45239	-750.63031	-222.25584	909.2099	-757.76086	-171.39752	828.38306	-803.15265	-192.1335	813.63885	-755.43958	-149.97223	754.50531	-772.3363	-299.96024	929.65796	-1112.32629	-306.06476	933.70673	-873.83105	-464.29013	948.09253	-1068.70496	-465.03122	965.75098	-919.57605	-284.31931	632.2384	-1163.73999	-209.09749	472.08249	-1126.80615	-213.134	278.85941	-1129.1593	-175.21033	70.4875	-1095.53137	-205.09677	29.55693	-1053.62634	-23.22096	59.44153	-1083.40637	-393.43503	644.32007	-838.16919	-410.77435	465.18497	-872.74445	-491.11624	289.33072	-871.92517	-558.65198	82.59364	-921.64465	-606.75739	56.62637	-971.96051	-421.34158	31.57883	-936.66553	-355.0433	1667.64087	-1027.63318	NaN	NaN	NaN	NaN	NaN	NaN	NaN	NaN	NaN	NaN	NaN	NaN	NaN	NaN	NaN
116	1.15	-252.85338	1610.21533	-1063.58521	-271.70731	1620.92163	-931.57581	-377.04837	1557.5575	-1073.62451	-390.39319	1568.07166	-943.45233	-409.20898	1410.84961	-1003.48059	-459.47354	1100.02332	-1001.43353	-291.71585	1328.27783	-1000.00751	-257.77524	1160.38757	-1003.89038	-469.79361	1241.22607	-901.24109	-331.14401	1366.51208	-1157.40906	-366.70749	1168.43188	-1223.50049	-377.20944	1045.70874	-1233.42395	-372.41315	914.9859	-1235.39905	-371.35971	794.30023	-1207.6134	-398.43912	804.82953	-1255.7677	-401.86774	719.5246	-1245.98413	-332.92917	1356.24573	-842.05255	-304.0892	1139.34241	-763.07306	-265.95105	1033.75415	-751.19452	-211.50565	908.84723	-758.61847	-160.25027	828.46582	-804.30945	-180.89594	813.44653	-756.56897	-138.16197	754.73444	-773.60089	-289.82358	928.34058	-1112.85571	-297.1044	932.74475	-874.10736	-454.25259	947.08984	-1069.84045	-455.7413	964.8587	-920.76294	-278.44547	629.66296	-1164.32422	-203.37437	469.6235	-1125.9491	-200.23697	277.54224	-1129.34167	-153.25984	70.87339	-1097.58081	-181.99008	29.16524	-1055.59399	-0.39842	63.53581	-1085.29468	-386.38531	643.94147	-838.13031	-405.08203	464.80655	-872.65833	-487.63535	289.90958	-871.7265	-558.00067	83.96679	-921.30493	-606.27417	58.49788	-971.69525	-421.01877	31.25129	-936.73621	-345.45905	1667.17126	-1027.44934	NaN	NaN	NaN	NaN	NaN	NaN	NaN	NaN	NaN	NaN	NaN	NaN	NaN	NaN	NaN
117	1.16	-242.90213	1609.3313	-1064.61401	-261.95065	1620.01526	-932.59766	-367.06293	1556.57166	-1074.7334	-380.51715	1567.09985	-944.60156	-399.26468	1409.80347	-1004.57324	-449.66287	1099.15503	-1002.62115	-281.76898	1327.32251	-1000.97278	-247.90826	1159.40869	-1004.73224	-460.12466	1240.40491	-902.40839	-321.24139	1365.51147	-1158.55591	-358.89258	1167.52039	-1224.44263	-371.27573	1045.01636	-1234.32227	-367.98358	914.31665	-1236.2738	-367.76413	793.82446	-1208.31165	-395.40253	804.4007	-1256.35767	-399.2496	719.17902	-1246.52234	-323.14441	1355.23682	-843.04175	-294.42935	1138.48499	-763.88983	-256.05185	1032.98242	-751.88409	-200.96539	908.37122	-759.59125	-149.36839	828.22479	-805.50598	-169.79237	813.09485	-757.75092	-126.70009	754.86194	-774.78668	-279.56857	927.0564	-1113.38513	-287.9129	931.75922	-874.5166	-444.12039	946.19678	-1071.10547	-446.35452	963.97809	-922.01202	-271.97519	627.44739	-1165.07007	-197.58786	467.22073	-1125.21338	-188.32843	276.41284	-1129.48059	-133.64569	71.06882	-1099.26038	-161.16154	29.00102	-1057.11218	20.21099	67.7129	-1086.86157	-379.07043	643.57153	-838.37262	-399.08948	464.49933	-872.58453	-483.99893	290.50671	-871.51355	-557.2475	85.42647	-920.84491	-605.6991	60.59756	-971.24591	-421.05328	31.28325	-936.63519	-335.4126	1665.56873	-1029.74475	NaN	NaN	NaN	NaN	NaN	NaN	NaN	NaN	NaN	NaN	NaN	NaN	NaN	NaN	NaN
118	1.17	-232.94588	1608.45386	-1065.56665	-252.06302	1619.15662	-933.7041	-357.07703	1555.65161	-1075.88525	-370.70847	1566.16589	-945.79413	-389.32419	1408.88672	-1005.76251	-439.6423	1098.35742	-1003.87683	-271.76462	1326.43408	-1002.0564	-237.91512	1158.54114	-1005.55804	-450.48053	1239.53125	-903.72662	-311.25708	1364.57922	-1159.84424	-350.78055	1166.76868	-1225.47986	-364.94034	1044.39941	-1235.26208	-362.97861	913.75629	-1237.30469	-364.26276	793.12085	-1209.2793	-391.83466	804.01416	-1257.03345	-396.04529	718.87537	-1247.12061	-313.35864	1354.37854	-844.08667	-284.67978	1137.63879	-765.0683	-246.16682	1032.20361	-752.75482	-190.69585	907.78503	-760.56567	-138.634	828.10321	-806.36938	-159.3345	812.64136	-758.82867	-115.78645	754.74274	-775.85449	-269.14993	925.94763	-1113.89709	-278.49347	930.83331	-875.0235	-433.88635	945.44196	-1072.41895	-436.75714	963.13757	-923.38757	-264.80298	625.52222	-1166.03979	-191.68565	464.89127	-1124.36426	-177.44586	275.43903	-1129.72607	-116.04812	71.65005	-1101.14648	-141.48117	28.33385	-1059.98901	38.50537	71.5494	-1088.04529	-371.60175	643.27228	-838.62988	-393.02539	464.26462	-872.39685	-480.2269	291.23767	-871.22046	-556.21295	87.14066	-920.4201	-604.98535	62.72564	-970.75659	-420.86023	31.32677	-936.31799	-326.89273	1668.13782	-1030.30493	NaN	NaN	NaN	NaN	NaN	NaN	NaN	NaN	NaN	NaN	NaN	NaN	NaN	NaN	NaN
